In Search Of Guru Dutt 1989 - 2011 Collectors Edition DVD Pack
-------------------------------------------------------------- 
http://www.imdb.com/title/tt1906397/

This is a moving and haunting 85 minute film that has been greatly appreciated by audiences around the world. Presented through evocative film excerpts and insightful comments, this fine documentary titled In Search of Guru Dutt, was made in 1989 for Channel 4 TV, UK. Based on extensive research starting in the mid-eighties by Nasreen Munni Kabir, some twenty-four years after Guru Dutt had committed suicide on 10 October 1964, the idea of the film is to discover work and personality of Guru Dutt.

Through testimonies of colleagues and family, anecdotes and analysis,the documentary paints a fine and thoughtful portrait of an exceptional director of Indian cinema.

mantris 
http://soundcloud.com/mantris

General
Format                           : AVI
Format/Info                      : Audio Video Interleave
File size                        : 1.37 GiB
Duration                         : 1h 23mn
Overall bit rate                 : 2 344 Kbps
Writing application              : FairUse Wizard - http://fairusewizard.com
Writing library                  : The best and REALLY easy backup tool

Video
ID                               : 0
Format                           : MPEG-4 Visual
Format settings, BVOP            : Yes
Format settings, QPel            : No
Format settings, GMC             : No warppoints
Format settings, Matrix          : Default (H.263)
Codec ID                         : DX50
Codec ID/Hint                    : DivX 5
Duration                         : 1h 23mn
Bit rate                         : 2 172 Kbps
Width                            : 640 pixels
Height                           : 464 pixels
Display aspect ratio             : 1.379
Frame rate                       : 29.970 fps
Color space                      : YUV
Chroma subsampling               : 4:2:0
Bit depth                        : 8 bits
Scan type                        : Progressive
Compression mode                 : Lossy
Bits/(Pixel*Frame)               : 0.244
Stream size                      : 1.27 GiB (93%)
Writing library                  : DivX 6.8.0 (UTC 2007-12-04)

Audio
ID                               : 1
Format                           : MPEG Audio
Format version                   : Version 1
Format profile                   : Layer 3
Mode                             : Joint stereo
Mode extension                   : MS Stereo
Codec ID                         : 55
Codec ID/Hint                    : MP3
Duration                         : 1h 23mn
Bit rate mode                    : Constant
Bit rate                         : 160 Kbps
Channel(s)                       : 2 channels
Sampling rate                    : 48.0 KHz
Compression mode                 : Lossy
Stream size                      : 95.7 MiB (7%)
Alignment                        : Aligned on interleaves
Interleave, duration             : 33 ms (1.00 video frame)
Interleave, preload duration     : 504 ms
Writing library                  : LAME3.97 
Encoding settings                : -m j -V 4 -q 2 -lowpass 17.5 -b 160